<svg width="210" height="210" viewBox="0 0 210 210" fill="none" xmlns="http://www.w3.org/2000/svg">
<path d="M96.9685 149.615L100.95 146.903M49.907 163.444C54.3643 158.021 66.2209 147.12 77.9884 146.903C89.7558 146.686 118.016 154.767 130.674 158.834C130.674 158.834 139.977 137.843 146.988 127.922C154 118 161.163 125.21 161.163 125.21L150.733 150.699M150.733 150.699C150.733 150.699 162.233 135.514 169.721 132.531C177.209 129.549 180.419 135.514 180.419 135.514L171.326 147.758M150.733 150.699L145.384 163.444M145.384 163.444L142.255 171.85L139.194 180.798M145.384 163.444C145.384 163.444 175.605 144.734 184.965 140.124C194.326 135.514 197.5 144.5 197.5 144.5C197.5 144.5 167.796 168.897 151.743 180.098C151.08 180.561 150.299 180.798 149.49 180.798H139.194M139.194 180.798L138.821 181.889C138.267 183.507 136.746 184.594 135.036 184.594H64.249C62.4198 184.594 60.8237 185.835 60.3726 187.607L59 193L13 193C15.5 165 25.5423 145.815 54.4535 135.47C61.5648 132.925 70.5571 130.505 79 128.5" stroke="white" stroke-linecap="round" stroke-linejoin="round"/>
<path d="M117.792 105.724C116.341 102.605 112.898 100.451 108.876 100.451C103.526 100.451 99.2124 102.456 99.2124 107.247C99.2124 107.247 98.9636 113.486 109.373 113.486C119.078 113.486 118.539 120.282 118.539 120.282C118.539 125.073 114.225 127.226 108.876 127.226C104.853 127.226 101.41 125.035 99.9589 121.953" stroke="white" stroke-linecap="round" stroke-linejoin="round"/>
<path d="M108.874 100.444V96.9157" stroke="white" stroke-linecap="round" stroke-linejoin="round"/>
<path d="M108.874 130.74V127.212" stroke="white" stroke-linecap="round" stroke-linejoin="round"/>
<path d="M62.5 82C53.3873 82 46 74.6127 46 65.5C46 56.3873 53.3873 49 62.5 49C71.6127 49 79 56.3873 79 65.5C79 74.6127 71.6127 82 62.5 82Z" stroke="url(#paint0_linear_640_3983)" stroke-width="4" stroke-linecap="round"/>
<path d="M66.5615 61.3738C65.8632 59.8733 64.2075 58.8372 62.2724 58.8372C59.699 58.8372 57.6243 59.8018 57.6243 62.1062C57.6243 62.1062 57.5046 65.1073 62.5118 65.1073C67.1799 65.1073 66.9205 68.3763 66.9205 68.3763C66.9205 70.6807 64.8458 71.7168 62.2724 71.7168C60.3373 71.7168 58.6816 70.6629 57.9834 69.1802" stroke="white" stroke-linecap="round" stroke-linejoin="round"/>
<path d="M62.2715 58.8338V57.1368" stroke="white" stroke-linecap="round" stroke-linejoin="round"/>
<path d="M62.2715 73.4068V71.7098" stroke="white" stroke-linecap="round" stroke-linejoin="round"/>
<path d="M95 82V69.2798C99.926 69.2797 103.919 65.2864 103.919 60.3604C103.919 55.4343 99.926 51.441 95 51.4409V41C95 38.7909 96.7909 37 99 37H184.441C186.651 37 188.441 38.7909 188.441 41V51.4409C183.515 51.4409 179.522 55.4343 179.522 60.3604C179.522 65.2864 183.515 69.2798 188.441 69.2798V83.1186C188.441 85.3278 186.651 87.1186 184.441 87.1186H131" stroke="white"/>
<path d="M119.291 49.7208V74.7208" stroke="white" stroke-linecap="round" stroke-linejoin="round"/>
<path d="M141.291 49.7208V74.7208" stroke="white" stroke-linecap="round" stroke-linejoin="round"/>
<path d="M165.291 49.7208V74.7208" stroke="white" stroke-linecap="round" stroke-linejoin="round"/>
<path d="M130.466 44.4883L130.466 60.2549" stroke="white" stroke-linecap="round" stroke-linejoin="round"/>
<path d="M130.466 64.2882L130.466 80.0548" stroke="white" stroke-linecap="round" stroke-linejoin="round"/>
<path d="M153.401 44.4883L153.401 60.2549" stroke="white" stroke-linecap="round" stroke-linejoin="round"/>
<path d="M153.401 64.2882L153.401 80.0548" stroke="white" stroke-linecap="round" stroke-linejoin="round"/>
<path d="M33 91V91C33.0035 95.693 36.8073 99.4965 41.5004 99.4997L42 99.5L41.5004 99.5003C36.8073 99.5035 33.0035 103.307 33 108V108V108C32.9965 103.307 29.1927 99.5035 24.4996 99.5003L24 99.5L24.4996 99.4997C29.1927 99.4965 32.9965 95.693 33 91V91Z" stroke="white" stroke-linejoin="round"/>
<path d="M190 107L190 107.503C190.002 109.709 191.791 111.498 193.998 111.499L195 111.5L193.998 111.501C191.791 111.502 190.002 113.291 190 115.497L190 116L190 115.497C189.998 113.291 188.209 111.502 186.002 111.501L185 111.5L186.002 111.499C188.209 111.498 189.998 109.709 190 107.503L190 107Z" stroke="white" stroke-linejoin="round"/>
<path d="M83.5 20L83.5004 20.5025C83.5019 22.7094 85.2906 24.4981 87.4975 24.4996L88 24.5L87.4975 24.5004C85.2906 24.5019 83.5019 26.2906 83.5004 28.4975L83.5 29L83.4996 28.4975C83.4981 26.2906 81.7094 24.5019 79.5025 24.5004L79 24.5L79.5025 24.4996C81.7094 24.4981 83.4981 22.7094 83.4996 20.5025L83.5 20Z" stroke="white" stroke-linejoin="round"/>
<path d="M108.878 145.662C90.1933 145.662 75.0466 130.516 75.0466 111.831C75.0466 93.1467 90.1933 78 108.878 78C127.562 78 142.709 93.1467 142.709 111.831C142.709 130.516 127.562 145.662 108.878 145.662Z" stroke="url(#paint1_linear_640_3983)" stroke-width="4" stroke-linecap="round"/>
<defs>
<linearGradient id="paint0_linear_640_3983" x1="79" y1="65.4279" x2="46" y2="65.4279" gradientUnits="userSpaceOnUse">
<stop stop-color="#00E7A8"/>
<stop offset="1" stop-color="#A3E812"/>
</linearGradient>
<linearGradient id="paint1_linear_640_3983" x1="142.709" y1="111.683" x2="75.0466" y2="111.683" gradientUnits="userSpaceOnUse">
<stop stop-color="#00E7A8"/>
<stop offset="1" stop-color="#A3E812"/>
</linearGradient>
</defs>
</svg>
